<svg xmlns="http://www.w3.org/2000/svg" xmlns:xlink="http://www.w3.org/1999/xlink" width="400" zoomAndPan="magnify" viewBox="0 0 300 30.000001" height="40" preserveAspectRatio="xMidYMid meet" version="1.0"><path fill="rgb(14.898682%, 14.898682%, 14.898682%)" d="M 222.183594 10.621094 C 216.675781 10.167969 211.09375 10.332031 205.570312 10.304688 C 199.371094 10.277344 193.167969 10.261719 186.96875 10.265625 C 174.027344 10.28125 161.085938 10.3125 148.136719 10.347656 C 122.621094 10.40625 97.101562 10.546875 71.578125 10.535156 C 71.167969 10.535156 71.199219 13.183594 71.644531 13.183594 C 97.160156 13.167969 122.679688 13.007812 148.199219 12.789062 C 161.140625 12.679688 174.082031 12.566406 187.023438 12.46875 C 192.980469 12.429688 198.941406 12.367188 204.902344 12.304688 C 210.65625 12.246094 216.476562 12.410156 222.214844 11.9375 C 222.425781 11.917969 222.40625 10.640625 222.183594 10.621094 " fill-opacity="1" fill-rule="nonzero"/><path fill="rgb(14.898682%, 14.898682%, 14.898682%)" d="M 154.667969 18.371094 C 155.359375 18.507812 156.84375 18.675781 155.777344 20.148438 C 155.34375 20.742188 154.339844 20.6875 153.722656 20.660156 C 152.007812 20.59375 150.96875 18.878906 152.023438 17.015625 C 152.449219 16.273438 153.34375 15.726562 154.035156 15.324219 C 154.828125 14.859375 155.59375 14.917969 156.472656 14.996094 C 159.355469 15.261719 162.214844 16.011719 165.023438 16.679688 C 172.367188 18.4375 179.644531 20.511719 186.878906 22.664062 C 188.984375 23.292969 191.210938 24.242188 193.402344 24.464844 C 196.757812 24.8125 199.015625 20.183594 197.878906 17.371094 C 196.992188 15.167969 195.25 13.964844 192.910156 14.855469 C 191.460938 15.40625 190.902344 16.945312 190.933594 18.367188 C 190.964844 19.695312 192.039062 20.917969 193.378906 20.945312 C 194.769531 20.980469 194.792969 19.492188 194.75 18.492188 C 194.726562 17.816406 194.492188 17.820312 194.496094 18.5 C 194.507812 20.039062 192.820312 19.769531 191.992188 19.179688 C 189.976562 17.742188 192.894531 16.019531 194.101562 15.773438 C 196.898438 15.191406 198.375 18.824219 197.136719 21.027344 C 196.472656 22.21875 195.308594 22.957031 194.007812 23.238281 C 192.1875 23.625 189.269531 22.207031 187.542969 21.691406 C 180.664062 19.664062 173.765625 17.679688 166.808594 15.921875 C 163.824219 15.167969 160.824219 14.433594 157.78125 13.941406 C 155.160156 13.515625 153.113281 13.769531 151.589844 16.367188 C 150.019531 19.050781 151.90625 22.347656 154.980469 22.109375 C 156.308594 22 156.597656 20.195312 156.625 19.1875 C 156.664062 17.835938 156.019531 17.128906 154.632812 17.125 C 154.457031 17.125 154.4375 18.324219 154.667969 18.371094 " fill-opacity="1" fill-rule="nonzero"/><path fill="rgb(14.898682%, 14.898682%, 14.898682%)" d="M 143.976562 17.125 C 141.113281 17.132812 141.570312 21.261719 143.699219 22.109375 C 145.300781 22.742188 147.105469 21.1875 147.386719 19.730469 C 147.582031 18.699219 147.5625 17.292969 147.019531 16.359375 C 145.484375 13.746094 143.457031 13.539062 140.828125 13.941406 C 137.789062 14.40625 134.785156 15.171875 131.800781 15.921875 C 124.847656 17.671875 117.953125 19.667969 111.070312 21.691406 C 109.0625 22.292969 106.722656 23.347656 104.601562 23.238281 C 100.601562 23.015625 99.753906 16.402344 103.972656 15.753906 C 105.25 15.550781 108.132812 16.984375 107.039062 18.722656 C 106.507812 19.574219 104.132812 20.351562 104.144531 18.648438 C 104.148438 18.242188 103.921875 17.519531 103.886719 18.339844 C 103.851562 19.355469 103.8125 20.464844 104.902344 20.894531 C 106.265625 21.429688 107.65625 19.761719 107.703125 18.527344 C 107.839844 14.683594 102.601562 12.753906 100.96875 16.796875 C 99.734375 19.851562 101.222656 23.71875 104.632812 24.433594 C 106.628906 24.855469 109.910156 23.226562 111.792969 22.664062 C 119.027344 20.503906 126.304688 18.453125 133.652344 16.679688 C 136.464844 16 139.316406 15.304688 142.199219 14.996094 C 143.132812 14.898438 143.789062 14.925781 144.640625 15.324219 C 146.710938 16.292969 148.230469 19.390625 145.480469 20.519531 C 144.886719 20.761719 144.265625 20.6875 143.660156 20.59375 C 142.617188 20.363281 142.402344 19.710938 143.027344 18.625 C 143.34375 18.503906 143.671875 18.417969 144.007812 18.371094 C 144.226562 18.324219 144.167969 17.125 143.976562 17.125 " fill-opacity="1" fill-rule="nonzero"/><path fill="rgb(14.898682%, 14.898682%, 14.898682%)" d="M 218.152344 17.773438 C 218.371094 19.285156 219.664062 20.242188 221.023438 20.695312 C 224.171875 21.746094 226.378906 18.640625 226.074219 15.808594 C 225.859375 13.773438 223.402344 9.207031 220.808594 11.324219 L 220.8125 11.585938 C 222.261719 12.480469 223.722656 12.53125 224.863281 14 C 226.484375 16.09375 225.449219 18.503906 223.082031 19.265625 C 222.292969 19.519531 221.386719 19.292969 220.640625 19.023438 C 219.941406 18.769531 218.226562 17.675781 218.515625 16.667969 C 218.894531 15.339844 222.035156 14.746094 221.839844 16.144531 C 221.824219 16.277344 221.933594 17.394531 222.066406 17.066406 C 222.972656 14.832031 220.953125 12.269531 218.828125 14.285156 C 217.949219 15.121094 217.996094 16.679688 218.152344 17.773438 " fill-opacity="1" fill-rule="nonzero"/><path fill="rgb(14.898682%, 14.898682%, 14.898682%)" d="M 218.152344 4.863281 C 218.371094 3.347656 219.664062 2.390625 221.023438 1.9375 C 224.171875 0.894531 226.378906 3.996094 226.074219 6.824219 C 225.859375 8.863281 223.402344 13.433594 220.808594 11.308594 L 220.8125 11.046875 C 222.261719 10.15625 223.722656 10.109375 224.863281 8.632812 C 226.484375 6.539062 225.449219 4.128906 223.082031 3.367188 C 222.292969 3.117188 221.386719 3.34375 220.640625 3.613281 C 219.941406 3.863281 218.226562 4.957031 218.515625 5.964844 C 218.894531 7.292969 222.035156 7.886719 221.839844 6.488281 C 221.824219 6.355469 221.933594 5.238281 222.066406 5.566406 C 222.972656 7.800781 220.953125 10.363281 218.828125 8.347656 C 217.949219 7.511719 217.996094 5.953125 218.152344 4.863281 " fill-opacity="1" fill-rule="nonzero"/><path fill="rgb(14.898682%, 14.898682%, 14.898682%)" d="M 225.566406 11.277344 C 225.566406 10.039062 226.574219 9.03125 227.816406 9.03125 C 229.058594 9.03125 230.0625 10.039062 230.0625 11.277344 C 230.0625 12.519531 229.058594 13.527344 227.816406 13.527344 C 226.574219 13.527344 225.566406 12.519531 225.566406 11.277344 " fill-opacity="1" fill-rule="nonzero"/><path fill="rgb(14.898682%, 14.898682%, 14.898682%)" d="M 230.0625 11.277344 C 230.0625 10.65625 230.566406 10.15625 231.1875 10.15625 C 231.808594 10.15625 232.3125 10.65625 232.3125 11.277344 C 232.3125 11.898438 231.808594 12.40625 231.1875 12.40625 C 230.566406 12.40625 230.0625 11.898438 230.0625 11.277344 " fill-opacity="1" fill-rule="nonzero"/><path fill="rgb(14.898682%, 14.898682%, 14.898682%)" d="M 77.410156 18.023438 C 77.195312 19.535156 75.898438 20.496094 74.539062 20.945312 C 71.390625 21.992188 69.1875 18.890625 69.488281 16.0625 C 69.707031 14.023438 72.164062 9.453125 74.757812 11.578125 L 74.753906 11.839844 C 73.300781 12.726562 71.84375 12.777344 70.703125 14.25 C 69.082031 16.347656 70.113281 18.757812 72.484375 19.519531 C 73.269531 19.769531 74.179688 19.542969 74.925781 19.269531 C 75.625 19.023438 77.339844 17.921875 77.050781 16.921875 C 76.671875 15.59375 73.527344 15 73.726562 16.394531 C 73.742188 16.53125 73.632812 17.648438 73.496094 17.320312 C 72.59375 15.085938 74.613281 12.519531 76.738281 14.539062 C 77.617188 15.375 77.570312 16.933594 77.410156 18.023438 " fill-opacity="1" fill-rule="nonzero"/><path fill="rgb(14.898682%, 14.898682%, 14.898682%)" d="M 77.410156 5.113281 C 77.195312 3.601562 75.898438 2.644531 74.539062 2.191406 C 71.390625 1.140625 69.1875 4.246094 69.488281 7.074219 C 69.707031 9.113281 72.164062 13.679688 74.757812 11.558594 L 74.753906 11.296875 C 73.300781 10.40625 71.84375 10.355469 70.703125 8.882812 C 69.082031 6.792969 70.113281 4.382812 72.484375 3.621094 C 73.269531 3.367188 74.179688 3.59375 74.925781 3.863281 C 75.625 4.117188 77.339844 5.210938 77.050781 6.214844 C 76.671875 7.539062 73.527344 8.140625 73.726562 6.742188 C 73.742188 6.605469 73.632812 5.488281 73.496094 5.8125 C 72.59375 8.050781 74.613281 10.617188 76.738281 8.597656 C 77.617188 7.765625 77.570312 6.207031 77.410156 5.113281 " fill-opacity="1" fill-rule="nonzero"/><path fill="rgb(14.898682%, 14.898682%, 14.898682%)" d="M 69.996094 11.53125 C 69.996094 10.289062 68.992188 9.28125 67.753906 9.28125 C 66.507812 9.28125 65.503906 10.289062 65.503906 11.53125 C 65.503906 12.769531 66.507812 13.78125 67.753906 13.78125 C 68.992188 13.78125 69.996094 12.769531 69.996094 11.53125 " fill-opacity="1" fill-rule="nonzero"/><path fill="rgb(14.898682%, 14.898682%, 14.898682%)" d="M 65.503906 11.53125 C 65.503906 10.90625 64.996094 10.40625 64.375 10.40625 C 63.757812 10.40625 63.253906 10.90625 63.253906 11.53125 C 63.253906 12.152344 63.757812 12.652344 64.375 12.652344 C 64.996094 12.652344 65.503906 12.152344 65.503906 11.53125 " fill-opacity="1" fill-rule="nonzero"/><path fill="rgb(14.898682%, 14.898682%, 14.898682%)" d="M 149.664062 20.496094 C 150.902344 20.496094 151.914062 21.507812 151.914062 22.746094 C 151.914062 23.984375 150.902344 24.992188 149.664062 24.992188 C 148.421875 24.992188 147.414062 23.984375 147.414062 22.746094 C 147.414062 21.507812 148.421875 20.496094 149.664062 20.496094 " fill-opacity="1" fill-rule="nonzero"/><path fill="rgb(14.898682%, 14.898682%, 14.898682%)" d="M 149.664062 24.992188 C 150.285156 24.992188 150.785156 25.496094 150.785156 26.117188 C 150.785156 26.734375 150.285156 27.238281 149.664062 27.238281 C 149.039062 27.238281 148.539062 26.734375 148.539062 26.117188 C 148.539062 25.496094 149.039062 24.992188 149.664062 24.992188 " fill-opacity="1" fill-rule="nonzero"/></svg>